<?xml version="1.0" encoding="UTF-8"?>
<!--Generator: Apple Native CoreSVG 232.5-->
<!DOCTYPE svg
PUBLIC "-//W3C//DTD SVG 1.1//EN"
       "http://www.w3.org/Graphics/SVG/1.1/DTD/svg11.dtd">
<svg version="1.1" xmlns="http://www.w3.org/2000/svg" xmlns:xlink="http://www.w3.org/1999/xlink" width="30.249" height="29.8975">
 <g>
  <rect height="29.8975" opacity="0" width="30.249" x="0" y="0"/>
  <path d="M29.8828 14.9414C29.8828 23.1006 23.1152 29.8828 14.9414 29.8828C6.78223 29.8828 0 23.1006 0 14.9414C0 6.76758 6.76758 0 14.9268 0C23.1006 0 29.8828 6.76758 29.8828 14.9414ZM12.3633 9.11133C11.6455 9.11133 11.1914 9.55078 11.1914 10.2246C11.1914 10.8838 11.6602 11.3232 12.3926 11.3232L15.1172 11.3232L17.3584 11.0889L15 13.2861L9.44824 18.8232C9.22852 19.043 9.08203 19.3506 9.08203 19.6436C9.08203 20.332 9.53613 20.7715 10.1953 20.7715C10.5615 20.7715 10.8398 20.6396 11.0742 20.4199L16.5967 14.8828L18.7793 12.5537L18.5596 14.9121L18.5596 17.5049C18.5596 18.2227 18.999 18.6914 19.6729 18.6914C20.332 18.6914 20.7861 18.1787 20.7861 17.4756L20.7861 10.3564C20.7861 9.46289 20.2881 9.11133 19.5117 9.11133Z" fill="#000000" fill-opacity="0.85"/>
 </g>
</svg>
