<?xml version="1.0" encoding="UTF-8"?>
<!--Generator: Apple Native CoreSVG 232.5-->
<!DOCTYPE svg
PUBLIC "-//W3C//DTD SVG 1.1//EN"
       "http://www.w3.org/Graphics/SVG/1.1/DTD/svg11.dtd">
<svg version="1.1" xmlns="http://www.w3.org/2000/svg" xmlns:xlink="http://www.w3.org/1999/xlink" width="22.002" height="21.665">
 <g>
  <rect height="21.665" opacity="0" width="22.002" x="0" y="0"/>
  <path d="M21.6357 16.2012L21.6211 1.46484C21.6211 0.629883 21.0791 0.0439453 20.2002 0.0439453L5.46387 0.0439453C4.64355 0.0439453 4.08691 0.673828 4.08691 1.37695C4.08691 2.08008 4.7168 2.68066 5.40527 2.68066L10.5029 2.68066L17.6514 2.44629L14.9268 4.83398L0.410156 19.3799C0.146484 19.6436 0 19.9805 0 20.3027C0 21.0059 0.629883 21.665 1.3623 21.665C1.69922 21.665 2.02148 21.5479 2.28516 21.2695L16.8311 6.73828L19.248 3.99902L18.9844 10.8398L18.9844 16.2598C18.9844 16.9482 19.585 17.5928 20.3027 17.5928C21.0059 17.5928 21.6357 16.9922 21.6357 16.2012Z" fill="#000000" fill-opacity="0.85"/>
 </g>
</svg>
