<?xml version="1.0" encoding="UTF-8"?>
<!--Generator: Apple Native CoreSVG 232.5-->
<!DOCTYPE svg
PUBLIC "-//W3C//DTD SVG 1.1//EN"
       "http://www.w3.org/Graphics/SVG/1.1/DTD/svg11.dtd">
<svg version="1.1" xmlns="http://www.w3.org/2000/svg" xmlns:xlink="http://www.w3.org/1999/xlink" width="32.25" height="31.8906">
 <g>
  <rect height="31.8906" opacity="0" width="32.25" x="0" y="0"/>
  <path d="M15.9375 31.875C24.6562 31.875 31.875 24.6406 31.875 15.9375C31.875 7.21875 24.6406 0 15.9219 0C7.21875 0 0 7.21875 0 15.9375C0 24.6406 7.23438 31.875 15.9375 31.875ZM15.9375 29.2188C8.5625 29.2188 2.67188 23.3125 2.67188 15.9375C2.67188 8.5625 8.54688 2.65625 15.9219 2.65625C23.2969 2.65625 29.2188 8.5625 29.2188 15.9375C29.2188 23.3125 23.3125 29.2188 15.9375 29.2188Z" fill="#ffffff"/>
  <path d="M11.0156 12.0625C10.3281 12.0625 9.85938 12.5781 9.85938 13.3125L9.85938 20.6875C9.85938 21.6094 10.375 21.9688 11.1719 21.9688L18.5781 21.9688C19.3125 21.9688 19.7812 21.5156 19.7812 20.8281C19.7812 20.1406 19.2969 19.6875 18.5469 19.6875L15.7031 19.6875L13.3906 19.9375L15.8281 17.6562L21.5938 11.9062C21.8125 11.6875 21.9688 11.375 21.9688 11.0625C21.9688 10.3594 21.5 9.90625 20.8125 9.90625C20.4375 9.90625 20.1406 10.0469 19.9219 10.2656L14.1719 16.0156L11.9219 18.4219L12.1562 15.9844L12.1562 13.2812C12.1562 12.5312 11.7031 12.0625 11.0156 12.0625Z" fill="#ffffff"/>
 </g>
</svg>
