<?xml version="1.0" encoding="UTF-8"?>
<!--Generator: Apple Native CoreSVG 232.5-->
<!DOCTYPE svg
PUBLIC "-//W3C//DTD SVG 1.1//EN"
       "http://www.w3.org/Graphics/SVG/1.1/DTD/svg11.dtd">
<svg version="1.1" xmlns="http://www.w3.org/2000/svg" xmlns:xlink="http://www.w3.org/1999/xlink" width="30.249" height="29.8975">
 <g>
  <rect height="29.8975" opacity="0" width="30.249" x="0" y="0"/>
  <path d="M29.8828 14.9414C29.8828 23.1006 23.1152 29.8828 14.9414 29.8828C6.78223 29.8828 0 23.1006 0 14.9414C0 6.76758 6.76758 0 14.9268 0C23.1006 0 29.8828 6.76758 29.8828 14.9414ZM13.8135 8.39355L13.8135 15.9082L13.9453 19.1162L12.4365 17.2998L10.6494 15.498C10.4443 15.2783 10.1514 15.1611 9.84375 15.1611C9.21387 15.1611 8.74512 15.6299 8.74512 16.2598C8.74512 16.582 8.83301 16.8457 9.03809 17.0508L14.0771 22.0605C14.3848 22.3682 14.6338 22.5 14.9561 22.5C15.293 22.5 15.5566 22.3535 15.8496 22.0605L20.874 17.0508C21.0791 16.8457 21.1963 16.582 21.1963 16.2598C21.1963 15.6299 20.7129 15.1611 20.083 15.1611C19.7607 15.1611 19.4824 15.2637 19.2773 15.498L17.5049 17.2998L15.9668 19.1309L16.0986 15.9082L16.0986 8.39355C16.0986 7.71973 15.6299 7.25098 14.9561 7.25098C14.2969 7.25098 13.8135 7.71973 13.8135 8.39355Z" fill="#000000" fill-opacity="0.85"/>
 </g>
</svg>
