<?xml version="1.0" encoding="UTF-8"?>
<!--Generator: Apple Native CoreSVG 232.5-->
<!DOCTYPE svg
PUBLIC "-//W3C//DTD SVG 1.1//EN"
       "http://www.w3.org/Graphics/SVG/1.1/DTD/svg11.dtd">
<svg version="1.1" xmlns="http://www.w3.org/2000/svg" xmlns:xlink="http://www.w3.org/1999/xlink" width="30.249" height="29.8975">
 <g>
  <rect height="29.8975" opacity="0" width="30.249" x="0" y="0"/>
  <path d="M14.9414 29.8828C23.1152 29.8828 29.8828 23.1006 29.8828 14.9414C29.8828 6.76758 23.1006 0 14.9268 0C6.76758 0 0 6.76758 0 14.9414C0 23.1006 6.78223 29.8828 14.9414 29.8828ZM14.9414 27.3926C8.02734 27.3926 2.50488 21.8555 2.50488 14.9414C2.50488 8.02734 8.0127 2.49023 14.9268 2.49023C21.8408 2.49023 27.3926 8.02734 27.3926 14.9414C27.3926 21.8555 21.8555 27.3926 14.9414 27.3926Z" fill="#000000" fill-opacity="0.85"/>
  <path d="M19.5117 18.5742C20.1562 18.5742 20.5957 18.0762 20.5957 17.4023L20.5957 10.4883C20.5957 9.62402 20.1123 9.28711 19.3652 9.28711L12.4219 9.28711C11.7334 9.28711 11.2939 9.71191 11.2939 10.3564C11.2939 11.001 11.748 11.4258 12.4512 11.4258L15.1172 11.4258L17.2852 11.1914L15 13.3154L9.59473 18.7207C9.38965 18.9258 9.24316 19.2188 9.24316 19.5117C9.24316 20.1709 9.68262 20.5957 10.3271 20.5957C10.6787 20.5957 10.9424 20.4639 11.1621 20.2588L16.5527 14.8682L18.6621 12.6123L18.4424 14.8975L18.4424 17.4316C18.4424 18.1201 18.8672 18.5742 19.5117 18.5742Z" fill="#000000" fill-opacity="0.85"/>
 </g>
</svg>
