<svg width="29" height="45" viewBox="0 0 29 45" fill="none" xmlns="http://www.w3.org/2000/svg">
<g clip-path="url(#clip0_233_1443)">
<path d="M0.774879 18.1875C1.82958 12.7236 6.06298 9.2373 11.9517 9.2373C13.6655 9.2373 15.2476 9.54492 16.6392 10.0869C16.4488 10.8339 16.4488 11.6543 16.5659 12.372C15.2622 11.6982 13.6948 11.3173 11.9517 11.3173C7.36668 11.3173 4.04148 13.8808 2.98678 17.997C2.18118 18.1289 1.47798 18.1875 0.774879 18.1875ZM11.0728 39.0908C6.45848 39.0908 3.61668 37.4501 3.61668 34.6523V28.4853C2.29838 27.3427 1.36088 25.7021 0.89208 23.8564C1.55128 23.871 2.26908 23.8271 3.03078 23.7392C3.52878 25.3359 4.46628 26.6543 5.72608 27.4306L5.71138 34.2861C5.71138 35.9707 7.68898 36.996 11.0728 36.996C14.4419 36.996 16.3902 35.9707 16.3902 34.2861V32.8652C16.3902 32.6162 16.5513 32.4697 16.8003 32.499L20.0083 32.8652C20.8579 32.9531 21.2388 32.6455 21.2388 31.6933V27.958C21.2388 27.7382 21.3852 27.6064 21.605 27.6064H22.2056C22.9673 27.6064 23.3481 27.2695 23.3481 26.6689C23.3481 26.3613 23.2456 25.9658 23.0405 25.5703L21.1362 22.2011C21.2095 21.6738 21.2534 21.1757 21.2534 20.6923C21.2534 19.5498 21.1069 18.4951 20.814 17.5283C21.6782 17.8212 22.6597 17.8066 23.0259 17.7626C23.231 18.7001 23.3335 19.6962 23.3335 20.7363C23.3335 21.1171 23.3188 21.4541 23.2749 21.7617L24.8423 24.5595C25.2524 25.3066 25.4575 26.039 25.4575 26.7128C25.4575 28.0019 24.6811 29.0273 23.3335 29.3789V31.8251C23.3335 34.0664 21.7661 35.1357 19.7446 34.9453L17.1665 34.7109L18.3823 34.0517V34.6669C18.3823 37.4648 15.6138 39.0908 11.0728 39.0908Z" fill="white"/>
<path d="M12.596 0.755914L12.5814 5.54595C12.5814 6.24908 11.7757 6.48345 11.3216 6.10259L8.31869 3.67095C7.92319 3.33404 7.89389 2.89459 8.31869 2.54302L11.4241 0.140679C11.8489 -0.196235 12.596 0.0967342 12.596 0.755914ZM19.056 3.93462C19.6712 4.34478 19.6712 4.96002 19.3636 5.32623C19.0999 5.63384 18.6165 5.73638 18.0745 5.38482C16.5071 4.28619 14.4564 3.89068 12.2298 3.99322L12.1712 2.25005C14.7054 2.14752 17.1663 2.63091 19.056 3.93462ZM26.9222 13.295C25.5892 15.3311 24.5784 16.4297 22.3372 16.4297C19.0999 16.4297 17.8402 13.5147 17.8402 11.5225C17.8402 10.3946 18.2503 9.39849 19.0706 8.75396C20.0374 7.97759 22.6888 6.42486 23.2308 6.21978C24.2855 5.80962 25.1058 6.10259 25.7357 7.11334L28.7093 11.8008C29.0023 12.2549 28.9144 12.7237 28.7386 12.9288C28.1966 12.2842 27.5081 12.4014 26.9222 13.295ZM18.6312 16.4737C12.5667 20.6631 5.09599 22.7139 0.68679 22.5967C0.56959 22.5967 0.467091 22.421 0.467091 22.2159L0.511091 19.8428C0.511091 19.5938 0.686791 19.462 0.906591 19.462C4.40749 19.5059 11.5706 17.4258 16.8587 13.7344C17.1956 14.7452 17.7669 15.712 18.6312 16.4737Z" fill="white"/>
</g>
<defs>
<clipPath id="clip0_233_1443">
<rect width="28.8002" height="44.1241" fill="white" transform="matrix(-1 0 0 1 28.9004 0)"/>
</clipPath>
</defs>
</svg>
