<?xml version="1.0" encoding="UTF-8"?>
<!--Generator: Apple Native CoreSVG 232.5-->
<!DOCTYPE svg
PUBLIC "-//W3C//DTD SVG 1.1//EN"
       "http://www.w3.org/Graphics/SVG/1.1/DTD/svg11.dtd">
<svg version="1.1" xmlns="http://www.w3.org/2000/svg" xmlns:xlink="http://www.w3.org/1999/xlink" width="30.8281" height="31.3281">
 <g>
  <rect height="31.3281" opacity="0" width="30.8281" x="0" y="0"/>
  <path d="M2.8125 14.1562L11.4844 14.1562C13.0781 14.1562 14 13.2188 14 11.625L14 2.96875C14 2.15625 13.3906 1.51562 12.5625 1.51562C11.7344 1.51562 11.1406 2.14062 11.1406 2.96875L11.1406 4.28125L11.4688 9.73438L7.34375 5.40625L2.54688 0.5625C2.28125 0.28125 1.92188 0.140625 1.54688 0.140625C0.65625 0.140625 0 0.734375 0 1.60938C0 2.01562 0.15625 2.40625 0.4375 2.6875L5.25 7.5L9.57812 11.6094L4.125 11.2969L2.8125 11.2969C1.98438 11.2969 1.34375 11.875 1.34375 12.7188C1.34375 13.5469 1.96875 14.1562 2.8125 14.1562ZM17.7969 30.0156C18.625 30.0156 19.2188 29.4062 19.2188 28.5625L19.2188 27.0781L18.8906 21.6406L23.0156 25.9688L27.9219 30.9062C28.1875 31.1875 28.5312 31.3281 28.9219 31.3281C29.7969 31.3281 30.4531 30.7344 30.4531 29.8594C30.4531 29.4531 30.3125 29.0625 30.0312 28.7812L25.1094 23.8594L20.7656 19.75L26.2344 20.0625L27.7188 20.0625C28.5469 20.0625 29.1875 19.4844 29.1875 18.6562C29.1875 17.8125 28.5625 17.2188 27.7188 17.2188L18.875 17.2188C17.2812 17.2188 16.3594 18.1406 16.3594 19.7344L16.3594 28.5625C16.3594 29.3906 16.9531 30.0156 17.7969 30.0156Z" fill="#ffffff"/>
 </g>
</svg>
