<?xml version="1.0" encoding="UTF-8"?>
<!--Generator: Apple Native CoreSVG 232.5-->
<!DOCTYPE svg
PUBLIC "-//W3C//DTD SVG 1.1//EN"
       "http://www.w3.org/Graphics/SVG/1.1/DTD/svg11.dtd">
<svg version="1.1" xmlns="http://www.w3.org/2000/svg" xmlns:xlink="http://www.w3.org/1999/xlink" width="30.1562" height="29.8281">
 <g>
  <rect height="29.8281" opacity="0" width="30.1562" x="0" y="0"/>
  <path d="M28.3281 12.6406C29.1719 12.6406 29.7812 12 29.7812 11.1875L29.7812 2.51562C29.7812 0.921875 28.8438 0 27.25 0L18.5781 0C17.75 0 17.1094 0.59375 17.1094 1.4375C17.1094 2.28125 17.75 2.85938 18.5781 2.85938L19.8906 2.85938L25.3594 2.54688L21.0156 6.65625L16.2031 11.4688C15.9219 11.75 15.7656 12.125 15.7656 12.5469C15.7656 13.4219 16.4375 14 17.3125 14C17.6875 14 18.0469 13.875 18.3125 13.5938L23.1094 8.75L27.2344 4.42188L26.9062 9.875L26.9062 11.1875C26.9062 12.0156 27.5156 12.6406 28.3281 12.6406ZM11.1875 29.8125C12.0312 29.8125 12.6562 29.2188 12.6562 28.375C12.6562 27.5312 12.0156 26.9531 11.1875 26.9531L9.89062 26.9531L4.42188 27.2656L8.75 23.1562L13.5781 18.3438C13.8594 18.0625 14 17.6875 14 17.2656C14 16.3906 13.3438 15.8125 12.4531 15.8125C12.0781 15.8125 11.7344 15.9375 11.4688 16.2188L6.65625 21.0625L2.54688 25.3906L2.85938 19.9375L2.85938 18.625C2.85938 17.7969 2.26562 17.1719 1.4375 17.1719C0.609375 17.1719 0 17.8125 0 18.625L0 27.2969C0 28.8906 0.921875 29.8125 2.51562 29.8125Z" fill="#ffffff"/>
 </g>
</svg>
