<?xml version="1.0" encoding="UTF-8"?>
<!--Generator: Apple Native CoreSVG 232.5-->
<!DOCTYPE svg
PUBLIC "-//W3C//DTD SVG 1.1//EN"
       "http://www.w3.org/Graphics/SVG/1.1/DTD/svg11.dtd">
<svg version="1.1" xmlns="http://www.w3.org/2000/svg" xmlns:xlink="http://www.w3.org/1999/xlink" width="41.1401" height="30.1182">
 <g>
  <rect height="30.1182" opacity="0" width="41.1401" x="0" y="0"/>
  <path d="M0.311262 26.3604C1.61497 30.6377 8.08958 31.3262 15.0915 28.1035L14.3298 26.4922C8.4265 29.2315 2.93333 28.8799 2.02513 25.8477C-0.289324 18.2744 15.9997 17.4248 14.1247 11.0527C13.1872 7.91798 5.95091 8.43067 0.780012 11.917C-0.260027 12.5908 0.736067 14.085 1.76146 13.3818C5.51146 10.8916 11.9128 9.91017 12.4109 11.5508C12.7771 12.7813 11.7517 13.6895 7.70872 15.9453C3.76829 18.1279-1.31471 21.0137 0.311262 26.3604Z" fill="#ffffff"/>
  <path d="M21.0827 25.3936L36.6687 9.82228L34.1052 7.24415L18.5193 22.8154L17.1277 26.0674C16.9812 26.419 17.3474 26.8291 17.7136 26.6826ZM37.9577 8.56251L39.4372 7.11231C40.1843 6.36524 40.2283 5.55958 39.5544 4.88575L39.0564 4.38771C38.3826 3.72853 37.5769 3.78712 36.8445 4.51954L35.3503 5.98438Z" fill="#ffffff"/>
 </g>
</svg>
